<svg xmlns="http://www.w3.org/2000/svg" viewBox="0 0 973.57 89.18" role="img" aria-label="TRANS STAR"><path class="wm-star" fill="#C8102E" d="M46.88 0L58.48 33.34L93.77 34.06L65.64 55.39L75.86 89.18L46.88 69.02L17.91 89.18L28.13 55.39L0 34.06L35.29 33.34Z"/><path class="wm-text" fill="currentColor" d="M180.37 78.89L159.97 78.89L159.97 26.49L130.17 26.49L130.17 10.09L210.17 10.09L210.17 26.49L180.37 26.49L180.37 78.89M243.37 78.89L223.07 78.89L223.07 10.09L280.27 10.09Q287.77 10.09 292.67 13.19Q297.57 16.29 300.07 21.34Q302.57 26.39 302.57 32.39Q302.57 38.89 299.47 44.24Q296.37 49.59 290.17 52.69L304.17 78.89L281.17 78.89L269.77 55.99L243.37 55.99L243.37 78.89M243.37 25.19L243.37 40.99L273.57 40.99Q277.27 40.99 279.47 38.79Q281.67 36.59 281.67 32.89Q281.67 30.49 280.67 28.74Q279.67 26.99 277.87 26.09Q276.07 25.19 273.57 25.19L243.37 25.19M332.27 78.89L311.27 78.89L345.07 10.09L367.77 10.09L401.57 78.89L379.47 78.89L374.27 67.89L337.47 67.89L332.27 78.89M350.47 38.99L344.27 52.99L367.47 52.99L361.27 38.99Q360.87 38.09 360.17 36.34Q359.47 34.59 358.67 32.64Q357.87 30.69 357.27 29.04Q356.67 27.39 356.27 26.59L355.57 26.59Q354.87 28.39 353.87 30.79Q352.87 33.19 352.02 35.39Q351.17 37.59 350.47 38.99M432.77 78.89L413.57 78.89L413.57 10.09L431.77 10.09L467.37 42.19Q468.27 42.99 469.72 44.39Q471.17 45.79 472.72 47.29Q474.27 48.79 475.37 50.09L476.27 50.09Q476.27 48.29 476.22 45.59Q476.17 42.89 476.17 40.79L476.17 10.09L495.37 10.09L495.37 78.89L477.47 78.89L442.67 47.49Q440.27 45.39 437.67 42.79Q435.07 40.19 433.47 38.69L432.67 38.69Q432.67 39.99 432.72 42.89Q432.77 45.79 432.77 49.09L432.77 78.89M551.07 80.09Q542.67 80.09 535.37 79.09Q528.07 78.09 522.57 75.59Q517.07 73.09 513.97 68.59Q510.87 64.09 510.87 57.19Q510.87 56.99 510.87 56.69Q510.87 56.39 510.97 56.09L530.97 56.09Q530.87 56.49 530.82 56.89Q530.77 57.29 530.77 57.79Q530.77 60.89 533.12 62.64Q535.47 64.39 539.67 65.09Q543.87 65.79 549.57 65.79Q551.87 65.79 554.32 65.64Q556.77 65.49 559.07 65.14Q561.37 64.79 563.22 64.09Q565.07 63.39 566.12 62.34Q567.17 61.29 567.17 59.69Q567.17 57.59 564.92 56.34Q562.67 55.09 558.72 54.34Q554.77 53.59 549.92 52.99Q545.07 52.39 539.87 51.54Q534.67 50.69 529.77 49.24Q524.87 47.79 520.97 45.39Q517.07 42.99 514.77 39.19Q512.47 35.39 512.47 29.99Q512.47 24.49 515.22 20.54Q517.97 16.59 522.97 13.99Q527.97 11.39 534.77 10.14Q541.57 8.89 549.57 8.89Q557.77 8.89 564.42 10.19Q571.07 11.49 575.82 14.04Q580.57 16.59 583.12 20.44Q585.67 24.29 585.67 29.49L585.67 30.89L565.97 30.89L565.97 30.09Q565.97 27.99 564.17 26.34Q562.37 24.69 558.92 23.74Q555.47 22.79 550.57 22.79Q544.67 22.79 540.87 23.54Q537.07 24.29 535.27 25.54Q533.47 26.79 533.47 28.39Q533.47 30.39 535.77 31.54Q538.07 32.69 541.97 33.39Q545.87 34.09 550.72 34.69Q555.57 35.29 560.82 36.09Q566.07 36.89 570.92 38.29Q575.77 39.69 579.67 42.04Q583.57 44.39 585.87 48.04Q588.17 51.69 588.17 56.99Q588.17 65.29 583.37 70.39Q578.57 75.49 570.22 77.79Q561.87 80.09 551.07 80.09M672.17 80.09Q663.77 80.09 656.47 79.09Q649.17 78.09 643.67 75.59Q638.17 73.09 635.07 68.59Q631.97 64.09 631.97 57.19Q631.97 56.99 631.97 56.69Q631.97 56.39 632.07 56.09L652.07 56.09Q651.97 56.49 651.92 56.89Q651.87 57.29 651.87 57.79Q651.87 60.89 654.22 62.64Q656.57 64.39 660.77 65.09Q664.97 65.79 670.67 65.79Q672.97 65.79 675.42 65.64Q677.87 65.49 680.17 65.14Q682.47 64.79 684.32 64.09Q686.17 63.39 687.22 62.34Q688.27 61.29 688.27 59.69Q688.27 57.59 686.02 56.34Q683.77 55.09 679.82 54.34Q675.87 53.59 671.02 52.99Q666.17 52.39 660.97 51.54Q655.77 50.69 650.87 49.24Q645.97 47.79 642.07 45.39Q638.17 42.99 635.87 39.19Q633.57 35.39 633.57 29.99Q633.57 24.49 636.32 20.54Q639.07 16.59 644.07 13.99Q649.07 11.39 655.87 10.14Q662.67 8.89 670.67 8.89Q678.87 8.89 685.52 10.19Q692.17 11.49 696.92 14.04Q701.67 16.59 704.22 20.44Q706.77 24.29 706.77 29.49L706.77 30.89L687.07 30.89L687.07 30.09Q687.07 27.99 685.27 26.34Q683.47 24.69 680.02 23.74Q676.57 22.79 671.67 22.79Q665.77 22.79 661.97 23.54Q658.17 24.29 656.37 25.54Q654.57 26.79 654.57 28.39Q654.57 30.39 656.87 31.54Q659.17 32.69 663.07 33.39Q666.97 34.09 671.82 34.69Q676.67 35.29 681.92 36.09Q687.17 36.89 692.02 38.29Q696.87 39.69 700.77 42.04Q704.67 44.39 706.97 48.04Q709.27 51.69 709.27 56.99Q709.27 65.29 704.47 70.39Q699.67 75.49 691.32 77.79Q682.97 80.09 672.17 80.09M768.27 78.89L747.87 78.89L747.87 26.49L718.07 26.49L718.07 10.09L798.07 10.09L798.07 26.49L768.27 26.49L768.27 78.89M811.17 78.89L790.17 78.89L823.97 10.09L846.67 10.09L880.47 78.89L858.37 78.89L853.17 67.89L816.37 67.89L811.17 78.89M829.37 38.99L823.17 52.99L846.37 52.99L840.17 38.99Q839.77 38.09 839.07 36.34Q838.37 34.59 837.57 32.64Q836.77 30.69 836.17 29.04Q835.57 27.39 835.17 26.59L834.47 26.59Q833.77 28.39 832.77 30.79Q831.77 33.19 830.92 35.39Q830.07 37.59 829.37 38.99M912.77 78.89L892.47 78.89L892.47 10.09L949.67 10.09Q957.17 10.09 962.07 13.19Q966.97 16.29 969.47 21.34Q971.97 26.39 971.97 32.39Q971.97 38.89 968.87 44.24Q965.77 49.59 959.57 52.69L973.57 78.89L950.57 78.89L939.17 55.99L912.77 55.99L912.77 78.89M912.77 25.19L912.77 40.99L942.97 40.99Q946.67 40.99 948.87 38.79Q951.07 36.59 951.07 32.89Q951.07 30.49 950.07 28.74Q949.07 26.99 947.27 26.09Q945.47 25.19 942.97 25.19"/></svg>
